<svg width="152" height="40" viewBox="0 0 152 40" fill="none" xmlns="http://www.w3.org/2000/svg">
<g clip-path="url(#clip0)">
<path d="M56.2025 33.5084H53.6979V39.9494H52.7757V33.5084H50.271V32.6895H56.2007L56.2025 33.5084Z" fill="white"/>
<path d="M57.2456 39.95V32.6896H60.3539C60.66 32.6863 60.963 32.755 61.2382 32.8892C61.5029 33.0188 61.7394 33.1995 61.9336 33.4209C62.1272 33.6417 62.2812 33.8939 62.3887 34.1674C62.4961 34.4353 62.5519 34.7216 62.5524 35.0107C62.5528 35.2583 62.5164 35.505 62.4449 35.742C62.3771 35.9698 62.2734 36.1851 62.1383 36.3811C62.0064 36.5706 61.8437 36.7366 61.6574 36.8712C61.4683 37.0091 61.2553 37.1092 61.0289 37.1677L62.7875 39.949H61.7445L60.0883 37.3416H58.166V39.949L57.2456 39.95ZM58.1678 36.5245H60.3658C60.5457 36.5273 60.7232 36.4848 60.8827 36.4018C61.0363 36.3198 61.1705 36.2068 61.2765 36.0694C61.3886 35.9228 61.4752 35.7586 61.532 35.5829C61.5933 35.3985 61.6246 35.2048 61.6242 35.0107C61.6251 34.8129 61.5887 34.6169 61.5163 34.433C61.4485 34.2582 61.3517 34.0954 61.2304 33.952C61.1147 33.816 60.9717 33.7044 60.8113 33.6251C60.6536 33.5477 60.4802 33.5071 60.3041 33.508H58.1669L58.1678 36.5245Z" fill="white"/>
<path d="M66.1708 32.6895H66.9483L69.9131 39.9489H68.9319L68.0729 37.8224H65.0264L64.178 39.9489H63.1968L66.1708 32.6895ZM67.8686 37.1063L66.56 33.7527L65.2104 37.1063H67.8686Z" fill="white"/>
<path d="M70.8848 39.9497V32.6893H73.4C73.9238 32.6787 74.4444 32.7759 74.9286 32.9756C75.3472 33.1513 75.7226 33.4164 76.0274 33.7525C76.3248 34.0864 76.5489 34.4774 76.6872 34.9025C76.8361 35.3562 76.9099 35.8312 76.9076 36.3084C76.915 36.8179 76.8311 37.3251 76.6618 37.806C76.5101 38.2335 76.2699 38.6235 75.9568 38.9509C75.6437 39.2728 75.2656 39.5241 74.8479 39.6891C74.3868 39.868 73.8957 39.9566 73.401 39.9497H70.8848ZM75.9766 36.3093C75.9808 35.9266 75.9241 35.5457 75.8079 35.1801C75.7055 34.8532 75.5345 34.5521 75.3067 34.2957C75.0803 34.0472 74.8036 33.8503 74.4942 33.7184C74.1479 33.5736 73.7754 33.5022 73.4 33.5086H71.8051V39.1344H73.4C73.7809 39.1414 74.159 39.0676 74.5094 38.9191C74.8202 38.7859 75.0964 38.583 75.3168 38.3266C75.5377 38.0638 75.7046 37.7595 75.8079 37.4321C75.9232 37.0692 75.9808 36.6902 75.9766 36.3093Z" fill="white"/>
<path d="M78.2026 39.9499V32.6895H79.1248V39.9489L78.2026 39.9499Z" fill="white"/>
<path d="M81.785 34.408V39.9494H80.8628V32.6895H81.5789L86.0773 38.3439V32.7001H86.9995V39.9489H86.2212L81.785 34.408Z" fill="white"/>
<path d="M93.8582 38.9676C93.3063 39.615 92.5008 39.9922 91.6496 40.0005C91.1825 40.0042 90.7214 39.8958 90.3055 39.6837C89.8988 39.4767 89.5359 39.1931 89.2371 38.8482C88.9333 38.4987 88.6926 38.0989 88.5257 37.6669C88.3532 37.2307 88.2647 36.7659 88.2647 36.297C88.2614 35.3545 88.6031 34.4429 89.2265 33.7351C89.5262 33.3985 89.8914 33.1251 90.2999 32.9328C90.7214 32.7336 91.1829 32.6331 91.6496 32.6363C92.2578 32.6119 92.8604 32.7641 93.3833 33.0758C93.826 33.3575 94.1842 33.7531 94.4208 34.2211L93.7153 34.7117C93.5253 34.3189 93.2233 33.9915 92.8466 33.7706C92.4749 33.5636 92.0553 33.4571 91.6297 33.4635C91.2807 33.4589 90.9363 33.5419 90.6278 33.7042C90.3313 33.8615 90.0708 34.0773 89.8605 34.3382C89.6447 34.6098 89.4787 34.9178 89.3704 35.2484C89.2546 35.5924 89.1961 35.9535 89.1965 36.3168C89.1942 36.6917 89.2602 37.0638 89.3916 37.4156C89.5133 37.7485 89.6931 38.0565 89.9228 38.3258C90.1432 38.5849 90.4143 38.7961 90.72 38.9446C91.0326 39.0958 91.3757 39.1733 91.7224 39.1696C92.5736 39.1392 93.3625 38.7168 93.8591 38.0247V37.0227H92.2942V36.3274H94.6356V39.9475H93.8587V38.9676H93.8582Z" fill="white"/>
<path d="M98.6226 39.9499V32.6895H99.5447V39.1309H103.593V39.9485L98.6226 39.9499Z" fill="white"/>
<path d="M104.594 39.9499V32.6895H105.516V39.9489L104.594 39.9499Z" fill="white"/>
<path d="M107.252 39.9499V32.7005H108.174V36.7079L111.916 32.6895H112.908L109.994 35.889L113.071 39.9471H112.069L109.432 36.4197L108.174 37.7283V39.9471L107.252 39.9499Z" fill="white"/>
<path d="M118.847 39.1319V39.9494H113.918V32.6895H118.753V33.5074H114.838V35.859H118.242V36.6254H114.838V39.1309L118.847 39.1319Z" fill="white"/>
<path d="M124.581 32.6895H125.358L128.323 39.9489H127.342L126.483 37.8224H123.437L122.589 39.9489H121.607L124.581 32.6895ZM126.279 37.1063L124.97 33.7527L123.621 37.1063H126.279Z" fill="white"/>
<path d="M131.564 39.95V32.6896H134.591C134.897 32.6863 135.2 32.755 135.475 32.8892C135.74 33.0188 135.976 33.1995 136.17 33.4209C136.364 33.6417 136.518 33.8939 136.625 34.1674C136.732 34.4353 136.788 34.7216 136.788 35.0107C136.789 35.3072 136.737 35.6014 136.635 35.8799C136.536 36.1528 136.389 36.406 136.201 36.6259C136.013 36.8436 135.783 37.0206 135.526 37.1474C135.253 37.2793 134.953 37.3462 134.65 37.3416H132.483V39.949L131.564 39.95ZM132.487 36.5245H134.603C134.782 36.5273 134.959 36.4867 135.119 36.4074C135.273 36.3281 135.407 36.2165 135.513 36.0795C135.625 35.9338 135.712 35.7688 135.769 35.5935C135.831 35.4059 135.862 35.2085 135.861 35.0107C135.863 34.6169 135.723 34.2356 135.467 33.9373C135.351 33.8036 135.208 33.6957 135.048 33.6201C134.889 33.5458 134.716 33.5075 134.54 33.5085H132.484L132.487 36.5245Z" fill="white"/>
<path d="M137.934 39.95V32.6896H141.042C141.348 32.6863 141.651 32.755 141.926 32.8892C142.191 33.0188 142.428 33.1995 142.622 33.4209C142.816 33.6417 142.969 33.8939 143.076 34.1674C143.184 34.4353 143.239 34.7216 143.24 35.0107C143.241 35.2583 143.204 35.505 143.133 35.742C143.065 35.9698 142.961 36.1856 142.826 36.3811C142.694 36.5706 142.531 36.7366 142.345 36.8712C142.156 37.0091 141.942 37.1092 141.716 37.1677L143.475 39.949H142.434L140.774 37.342H138.851V39.9495L137.934 39.95ZM138.856 36.5245H141.051C141.231 36.5273 141.408 36.4848 141.568 36.4018C141.721 36.3198 141.855 36.2068 141.962 36.0694C142.073 35.9232 142.16 35.7586 142.217 35.5829C142.279 35.3985 142.309 35.2048 142.309 35.0107C142.31 34.8129 142.274 34.6169 142.202 34.433C142.133 34.2582 142.037 34.0959 141.916 33.952C141.8 33.816 141.657 33.7044 141.497 33.6251C141.339 33.5477 141.165 33.5071 140.989 33.508H138.852L138.856 36.5245Z" fill="white"/>
<path d="M147.596 40.0016C147.112 40.0081 146.635 39.9007 146.2 39.6899C145.789 39.4875 145.422 39.2053 145.122 38.8595C144.82 38.5119 144.584 38.1121 144.426 37.6787C144.264 37.2438 144.181 36.7832 144.181 36.3189C144.179 35.843 144.268 35.3713 144.441 34.9282C144.609 34.4957 144.853 34.0973 145.162 33.752C145.468 33.4126 145.838 33.1359 146.25 32.9395C146.677 32.7371 147.144 32.6338 147.616 32.638C148.098 32.6315 148.575 32.7426 149.006 32.9607C149.415 33.1701 149.78 33.4564 150.08 33.8041C150.682 34.5082 151.015 35.4031 151.021 36.3295C151.022 36.8053 150.933 37.277 150.76 37.7201C150.594 38.1508 150.351 38.5474 150.044 38.8913C149.739 39.2293 149.371 39.5037 148.96 39.6987C148.534 39.9021 148.068 40.0053 147.596 40.0016ZM145.111 36.3212C145.11 36.685 145.171 37.046 145.291 37.3891C145.404 37.7225 145.575 38.0323 145.798 38.3048C146.014 38.5681 146.281 38.7839 146.586 38.9379C146.903 39.0974 147.253 39.1781 147.608 39.174C147.971 39.1804 148.329 39.0938 148.65 38.9236C148.954 38.7604 149.22 38.5372 149.434 38.2689C149.652 37.995 149.817 37.6851 149.925 37.3531C150.036 37.0207 150.092 36.6721 150.093 36.3212C150.094 35.9574 150.033 35.5963 149.914 35.2524C149.801 34.9199 149.628 34.6119 149.403 34.3426C149.185 34.083 148.917 33.8691 148.616 33.7142C147.968 33.3965 147.21 33.4001 146.566 33.7238C146.263 33.8834 145.997 34.1029 145.782 34.3694C145.564 34.6405 145.396 34.949 145.286 35.2796C145.171 35.6143 145.112 35.9661 145.112 36.3203V36.3212H145.111Z" fill="white"/>
<path d="M16.2683 3.6165e-07C7.27879 0.00415022 -0.00512465 7.29453 -0.00097479 16.284C-5.25999e-05 18.1925 0.336086 20.0862 0.993146 21.878C1.92825 22.0694 2.87995 22.1653 3.83441 22.1648C9.51649 22.1648 14.1749 18.8542 14.6388 14.6416H4.88064V9.77199H22.779V27.6625H17.895V19.5011C15.5974 24.4731 10.6194 27.656 5.14254 27.656C4.9747 27.656 4.80871 27.6486 4.64271 27.6436C10.9256 34.0648 21.2251 34.1768 27.6463 27.8939C34.068 21.6106 34.18 11.3116 27.8967 4.88991C24.8364 1.76184 20.6446 -0.000921829 16.2683 3.6165e-07Z" fill="white"/>
<path d="M39.2976 12.8893V17.3047H46.3874V20.4332H39.2976V27.725H35.7905V9.76074H47.6236V12.8893H39.2976Z" fill="white"/>
<path d="M61.8121 25.9083C59.1059 28.5319 54.8048 28.5319 52.0987 25.9083C50.2819 24.0916 50.3327 21.846 50.3327 18.7429C50.3327 15.6397 50.2824 13.3942 52.0987 11.5774C54.8048 8.95335 59.1059 8.95335 61.8121 11.5774C63.6288 13.3942 63.6034 15.6397 63.6034 18.7429C63.6034 21.846 63.6283 24.092 61.8121 25.9083ZM59.2129 13.6989C58.6407 13.0659 57.8199 12.7154 56.9674 12.7399C56.1074 12.7159 55.2793 13.0659 54.6969 13.6989C54.0159 14.4556 53.8388 15.2883 53.8388 18.7447C53.8388 22.2011 54.0154 23.0334 54.6969 23.7909C55.2793 24.4245 56.1074 24.774 56.9674 24.7495C57.8204 24.774 58.6407 24.4236 59.2129 23.7909C59.8939 23.0338 60.0959 22.2015 60.0959 18.7447C60.0959 15.2879 59.8944 14.4538 59.2129 13.6989Z" fill="white"/>
<path d="M77.03 27.725L73.5229 20.5591H70.9998V27.725H67.4927V9.76074H74.5318C78.1906 9.76074 80.36 12.2585 80.36 15.2611C80.4204 17.3831 79.0901 19.2962 77.0802 19.9791L81.0922 27.725H77.03ZM74.3049 12.8893H70.9998V17.6307H74.3049C75.844 17.6307 76.8529 16.6467 76.8529 15.2593C76.8529 13.8719 75.844 12.8893 74.3049 12.8893Z" fill="white"/>
<path d="M84.373 27.725V9.76074H96.2061V12.8893H87.8797V17.1028H94.9713V20.2318H87.8797V24.596H96.2061V27.7245L84.373 27.725Z" fill="white"/>
<path d="M105.697 14.0743L103.153 9.76074H99.1416L103.692 17.4749L105.697 14.0743Z" fill="white"/>
<path d="M113.75 27.8257L108.275 18.5457L113.397 9.86328H109.385L98.7886 27.8275H102.801L106.269 21.9463L109.738 27.8275L113.75 27.8257Z" fill="white"/>
<path d="M115.936 12.4781V9.80371H119.292V12.4781H115.936ZM115.986 27.8685V14.7236H119.266V27.8685H115.986Z" fill="#449CD0"/>
<path d="M138.497 27.868V19.9205C138.497 18.1292 137.361 17.5228 136.327 17.5228C135.318 17.5228 134.132 18.1283 134.132 19.844V27.8671H130.852V19.9205C130.852 18.1292 129.716 17.5228 128.682 17.5228C127.647 17.5228 126.487 18.1283 126.487 19.9205V27.868H123.207V14.7226H126.411V15.9316C127.278 15.0569 128.459 14.5658 129.691 14.5691C131.058 14.5041 132.366 15.1293 133.173 16.2341C134.171 15.1196 135.614 14.5091 137.109 14.5691C138.294 14.5239 139.451 14.9403 140.337 15.7301C141.319 16.7173 141.842 18.0734 141.774 19.465V27.8666L138.497 27.868Z" fill="#449CD0"/>
<path d="M148.703 17.5998V27.8684H145.424V17.5998H144.061V15.1021H145.424V13.4624C145.424 11.5955 146.585 9.70312 149.259 9.70312H151.126V12.4785H149.839C149.055 12.4785 148.703 12.9073 148.703 13.6644V15.1025H151.125V17.6003L148.703 17.5998Z" fill="#449CD0"/>
</g>
<defs>
<clipPath id="clip0">
<rect width="151.125" height="40" fill="white"/>
</clipPath>
</defs>
</svg>
